<?xml version="1.0" standalone="no"?>
<!DOCTYPE svg PUBLIC "-//W3C//DTD SVG 20010904//EN"
 "http://www.w3.org/TR/2001/REC-SVG-20010904/DTD/svg10.dtd">
<svg version="1.0" xmlns="http://www.w3.org/2000/svg"
 width="1024.000000pt" height="1024.000000pt" viewBox="0 0 1024.000000 1024.000000"
 preserveAspectRatio="xMidYMid meet">
<metadata>
Created by potrace 1.11, written by Peter Selinger 2001-2013
</metadata>
<g transform="translate(0.000000,1024.000000) scale(0.100000,-0.100000)"
fill="#000000" stroke="none">
<path d="M4929 9386 c-2 -2 -56 -7 -120 -10 -64 -4 -126 -9 -137 -11 -12 -2
-47 -6 -79 -10 -287 -29 -791 -159 -1038 -265 -213 -92 -301 -133 -405 -187
-919 -481 -1626 -1248 -2033 -2203 -67 -157 -178 -485 -201 -595 -3 -11 -16
-70 -30 -132 -14 -62 -28 -131 -31 -154 -3 -23 -7 -45 -9 -48 -2 -3 -7 -31
-11 -61 -3 -30 -8 -62 -10 -70 -2 -8 -7 -44 -11 -80 -3 -36 -8 -81 -10 -100
-26 -219 -25 -721 1 -930 2 -19 7 -57 10 -84 40 -346 150 -774 276 -1078 83
-199 203 -440 296 -596 37 -62 73 -121 78 -130 36 -60 241 -349 265 -372 3 -3
23 -27 45 -55 61 -77 211 -241 301 -330 421 -416 911 -738 1464 -962 145 -59
427 -152 508 -168 9 -1 37 -8 62 -15 92 -25 273 -61 380 -75 25 -3 52 -8 60
-10 8 -2 44 -7 80 -10 36 -4 79 -8 95 -10 169 -23 720 -23 895 0 19 3 58 7 85
10 108 12 326 48 395 65 19 5 46 11 60 14 95 17 433 115 472 136 10 6 23 10
29 10 18 0 280 111 409 173 287 138 591 328 839 526 112 89 252 215 355 317
157 156 269 285 403 463 40 53 77 101 82 107 35 42 188 287 260 414 203 359
387 851 456 1215 30 159 46 255 60 365 5 34 18 182 24 275 8 114 6 554 -3 630
-3 28 -8 73 -10 100 -12 113 -17 161 -21 175 -2 8 -7 35 -9 60 -9 74 -43 250
-66 341 -12 46 -23 91 -25 99 -18 91 -133 436 -175 525 -5 11 -21 49 -36 85
-29 73 -159 336 -192 390 -12 19 -25 42 -29 50 -34 76 -238 378 -369 547 -221
282 -545 599 -808 788 -15 11 -47 34 -70 51 -194 145 -531 340 -776 449 -228
101 -582 223 -720 248 -14 3 -45 10 -70 17 -25 7 -55 14 -67 16 -13 2 -35 6
-50 9 -41 8 -194 35 -223 40 -24 4 -156 19 -265 30 -63 7 -630 17 -636 11z
m-46 -615 c32 -30 36 -72 8 -100 -20 -20 -19 -20 37 -36 77 -22 141 -61 154
-93 10 -24 12 -25 16 -7 6 27 52 65 78 65 30 0 48 -25 78 -110 37 -105 45
-110 98 -74 23 16 72 45 108 65 52 29 64 40 62 58 -2 11 2 21 7 21 23 0 9 26
-19 37 -20 7 -30 18 -30 32 0 29 28 40 90 34 30 -2 72 -5 93 -6 41 -2 86 -40
88 -75 5 -68 1 -94 -13 -86 -7 4 -1 -8 12 -26 80 -113 -40 -210 -159 -130 -52
35 -77 37 -151 10 -30 -11 -56 -20 -57 -20 -1 0 1 -15 4 -34 5 -29 1 -37 -22
-52 -27 -18 -28 -18 -49 7 -26 32 -50 41 -83 33 -30 -8 -12 -24 28 -24 14 0
34 -6 44 -14 17 -12 18 -18 7 -54 -29 -96 -106 -136 -260 -136 -87 0 -91 -1
-67 -15 27 -17 33 -42 13 -59 -7 -6 -47 -20 -88 -32 -71 -20 -77 -24 -103 -68
-15 -26 -41 -68 -58 -94 -32 -48 -37 -83 -25 -155 11 -57 24 -82 43 -79 48 8
112 -66 118 -137 l2 -29 115 1 c96 2 124 -2 174 -20 99 -36 227 -100 270 -135
38 -31 43 -33 79 -23 48 14 129 5 162 -16 29 -19 48 -61 57 -125 14 -91 19
-103 66 -156 31 -33 51 -66 56 -89 3 -19 11 -35 18 -35 20 0 150 67 174 89 28
28 28 35 -7 79 -33 42 -62 122 -56 153 6 31 33 57 90 90 92 52 124 95 127 165
2 43 -22 77 -82 117 -82 54 -84 76 -11 143 l33 30 -12 60 c-7 32 -21 83 -32
112 -25 66 -18 95 24 113 27 11 50 10 148 -4 65 -9 144 -26 176 -36 90 -29
287 -125 309 -151 17 -20 18 -23 3 -17 -22 8 -24 -9 -3 -20 8 -5 20 -24 28
-43 16 -39 9 -72 -19 -88 -13 -7 -8 -10 24 -10 23 0 55 -9 72 -19 31 -18 40
-48 18 -56 -7 -3 4 -4 24 -3 26 1 46 10 68 31 22 21 41 29 72 31 39 2 46 7 81
53 62 83 80 84 121 3 9 -18 25 -38 36 -45 11 -6 20 -21 20 -32 0 -11 5 -27 10
-35 9 -15 13 -16 45 -19 9 0 15 -11 15 -25 0 -15 7 -26 19 -29 10 -2 24 -14
30 -26 10 -18 8 -23 -12 -32 l-25 -11 27 -30 c125 -143 150 -161 211 -147 65
15 98 11 106 -13 6 -20 8 -20 19 -5 17 23 25 21 25 -5 0 -62 65 -138 118 -138
19 0 20 -10 13 -121 -1 -11 -27 -26 -78 -44 -130 -46 -147 -58 -237 -169 l-23
-30 -32 26 c-39 33 -124 52 -205 44 -81 -7 -104 -12 -221 -45 -55 -16 -116
-32 -136 -35 -19 -3 -62 -25 -95 -49 -69 -50 -130 -81 -144 -72 -6 4 -6 -4 1
-18 9 -20 7 -31 -15 -66 -42 -66 -9 -50 104 53 110 99 247 137 338 94 47 -22
52 -38 22 -68 -21 -21 -34 -24 -87 -21 -43 2 -41 -4 7 -29 22 -11 41 -26 41
-33 1 -6 2 -17 3 -23 0 -5 13 -22 29 -36 15 -14 27 -36 27 -50 0 -49 -97 -117
-167 -118 -18 0 -33 -4 -33 -9 0 -13 -116 -83 -185 -110 -109 -44 -120 -59
-129 -167 -4 -48 -13 -67 -29 -61 -7 2 -24 -4 -38 -14 -14 -10 -59 -27 -99
-38 -40 -11 -84 -28 -97 -37 -22 -14 -24 -21 -19 -54 6 -42 -18 -85 -58 -99
-26 -10 -72 5 -80 26 -6 14 -9 14 -27 -3 -11 -10 -28 -37 -38 -60 -10 -23 -23
-44 -29 -48 -7 -4 -7 -16 1 -36 9 -24 9 -35 -2 -52 -14 -23 -17 -18 47 -59 17
-11 32 -25 32 -30 0 -14 -40 -50 -48 -45 -5 3 -8 -16 -8 -42 -1 -95 -68 -169
-220 -243 -217 -104 -280 -260 -134 -334 l50 -25 1 -63 c0 -34 3 -84 6 -112 8
-78 8 -208 0 -229 -6 -15 -14 -18 -48 -13 -69 9 -83 33 -148 239 -33 104 -84
200 -94 175 -3 -8 -19 -19 -35 -25 -26 -9 -34 -6 -78 29 -34 26 -68 42 -105
50 -30 5 -65 13 -79 15 -13 3 -29 9 -36 14 -7 6 -29 2 -61 -12 -68 -28 -99
-20 -123 35 -16 35 -20 38 -20 17 0 -14 5 -44 10 -68 19 -79 -23 -109 -102
-74 -36 17 -59 20 -133 16 -50 -2 -99 -6 -110 -8 -11 -3 -40 -5 -65 -6 -40 -1
-43 -2 -27 -14 9 -7 17 -16 17 -19 0 -15 -35 -37 -60 -37 -21 0 -42 -14 -80
-52 -75 -76 -83 -90 -70 -123 27 -72 28 -108 5 -279 -19 -143 -16 -204 16
-299 54 -162 127 -256 212 -273 12 -2 33 -7 47 -9 43 -10 177 -6 207 6 47 18
62 39 88 123 28 92 69 149 118 165 78 26 164 16 189 -22 14 -21 -1 -74 -50
-174 -39 -81 -51 -119 -68 -223 -12 -69 -20 -127 -18 -129 1 -2 23 -5 48 -7
44 -4 45 -4 51 30 l7 34 35 -21 c49 -28 126 -29 147 -2 16 20 16 19 48 -15 78
-84 108 -124 108 -141 0 -11 1 -21 2 -24 1 -2 5 -29 9 -59 4 -31 17 -69 29
-86 19 -27 20 -31 5 -37 -10 -3 -29 -7 -44 -8 -46 -3 -49 -5 -54 -24 -13 -51
90 -249 153 -294 63 -45 161 -42 195 5 12 18 17 20 27 9 11 -10 7 -17 -16 -36
-22 -18 -29 -32 -31 -68 -4 -54 -28 -103 -54 -112 -34 -10 -69 23 -110 105
l-39 78 -21 -21 c-15 -16 -25 -19 -35 -12 -7 6 -38 29 -67 52 -30 24 -73 57
-97 75 -27 21 -55 57 -77 100 -19 36 -51 90 -71 119 -19 29 -38 65 -40 79 -6
25 -8 26 -69 22 -70 -5 -144 13 -240 57 -58 27 -106 71 -169 154 -35 46 -102
87 -142 87 -16 0 -61 -9 -99 -20 -38 -11 -82 -20 -97 -20 -46 0 -136 39 -253
110 -61 37 -140 80 -176 96 -35 15 -86 42 -114 60 -107 68 -127 104 -131 229
-2 100 -10 125 -55 193 -50 74 -109 131 -176 169 -58 32 -79 53 -53 53 6 0 10
6 10 13 0 24 -113 182 -180 252 -69 73 -149 187 -181 262 -10 24 -19 45 -19
48 0 3 0 15 0 28 0 22 -40 46 -113 68 -24 7 -27 5 -23 -9 2 -9 13 -46 22 -82
11 -38 44 -109 80 -170 150 -251 187 -329 199 -423 4 -38 2 -49 -10 -54 -26
-9 -45 18 -55 82 -11 66 -29 90 -105 140 -27 18 -61 44 -75 59 -22 24 -23 29
-9 36 26 15 12 57 -47 145 -29 44 -55 90 -56 101 -2 11 -15 35 -30 54 -29 40
-58 94 -58 110 0 6 -16 45 -34 86 -42 91 -98 146 -202 199 -53 28 -92 57 -134
104 -33 35 -60 72 -61 80 -1 34 -8 53 -24 71 -11 12 -16 31 -13 56 3 36 1 39
-30 48 -67 19 -132 150 -138 276 -2 36 -4 67 -4 70 -2 9 2 233 4 270 6 90 19
144 42 167 16 16 19 23 9 23 -23 0 -45 55 -52 126 l-6 66 38 -16 c20 -9 46
-16 56 -16 14 0 19 -7 19 -30 0 -35 15 -38 47 -8 65 61 -8 160 -222 303 -60
40 -120 76 -133 80 -19 6 -22 11 -17 38 4 18 1 45 -5 61 -9 24 -14 27 -38 22
-54 -13 -55 -13 -67 42 l-12 53 50 77 c350 536 844 985 1409 1280 l117 61 48
-36 c26 -20 64 -49 83 -65 19 -15 37 -28 41 -28 14 0 2 48 -19 74 -24 32 -28
61 -10 72 7 4 46 8 88 9 41 0 86 7 99 14 15 8 44 12 77 9 30 -3 54 -3 54 0 0
3 -20 28 -45 57 l-45 53 70 26 c70 25 121 26 87 1 -9 -6 -18 -30 -21 -52 -2
-23 -12 -56 -21 -73 -9 -18 -13 -30 -8 -27 4 3 40 -3 78 -13 49 -13 89 -17
135 -13 36 3 126 6 200 7 74 1 141 4 149 6 10 4 25 -21 50 -79 20 -47 41 -86
48 -88 17 -6 26 33 17 80 -7 40 -8 53 -5 77 1 11 100 62 157 80 18 6 34 15 34
19 0 10 -48 53 -83 75 -15 9 -51 19 -79 22 -73 8 -101 21 -96 42 3 10 -1 23
-9 30 -14 14 -18 48 -5 56 4 2 26 7 48 10 22 4 49 8 60 10 12 2 45 7 75 11 30
4 56 8 58 10 5 6 51 -25 84 -54z m1724 -5895 c33 -11 39 -51 18 -105 -20 -51
-26 -114 -10 -119 6 -2 15 29 21 67 12 78 26 100 83 126 39 17 40 17 95 -8 30
-14 65 -35 78 -46 13 -13 35 -21 57 -21 40 0 82 -23 153 -82 l47 -39 60 31
c33 18 75 33 93 35 48 4 114 -25 162 -69 22 -21 56 -44 75 -50 72 -26 174
-134 188 -199 4 -19 13 -29 32 -33 60 -12 102 -28 118 -46 16 -18 14 -22 -53
-86 -69 -67 -293 -259 -348 -297 -16 -11 -40 -29 -55 -40 -139 -109 -436 -283
-636 -373 -77 -35 -149 -68 -160 -73 -144 -65 -602 -198 -737 -214 -41 -5 -47
-3 -53 16 -8 25 12 49 43 52 13 1 18 5 13 10 -6 6 2 32 20 67 29 58 38 97 19
85 -6 -4 -24 8 -40 25 -25 27 -30 40 -30 84 0 64 44 159 96 208 19 18 44 48
55 66 12 17 24 30 29 27 5 -3 15 7 23 22 8 16 27 53 43 83 24 46 29 67 28 125
0 47 -6 81 -18 104 -15 29 -16 40 -6 80 7 25 13 53 15 62 2 8 -5 40 -15 70
-26 79 -32 109 -21 109 5 0 1 17 -9 38 -10 20 -18 37 -17 38 1 0 21 -1 45 -4
35 -3 45 -9 58 -34 18 -35 24 -30 48 32 28 72 61 115 113 145 26 16 72 48 101
72 29 24 54 43 55 43 1 0 20 6 41 14 42 14 47 14 83 2z"/>
<path d="M5123 8260 c21 -17 30 -19 47 -10 31 17 24 25 -27 28 l-46 2 26 -20z"/>
<path d="M7695 7098 l-40 -43 43 40 c39 36 47 45 39 45 -2 0 -21 -19 -42 -42z"/>
<path d="M7625 7040 c-10 -11 -13 -20 -8 -20 13 0 38 29 31 35 -3 3 -13 -4
-23 -15z"/>
<path d="M7553 7027 c5 -15 37 -22 37 -9 0 5 -9 12 -21 15 -13 3 -19 1 -16 -6z"/>
</g>
</svg>
